<?xml version="1.0" encoding="utf-8"?>
<!-- Generator: Adobe Illustrator 16.0.0, SVG Export Plug-In . SVG Version: 6.00 Build 0)  -->
<!DOCTYPE svg PUBLIC "-//W3C//DTD SVG 1.1//EN" "http://www.w3.org/Graphics/SVG/1.1/DTD/svg11.dtd">
<svg version="1.1" id="图层_1" xmlns="http://www.w3.org/2000/svg" xmlns:xlink="http://www.w3.org/1999/xlink" x="0px" y="0px"
	 width="100px" height="100px" viewBox="0 0 100 100" enable-background="new 0 0 100 100" xml:space="preserve">
<circle fill="none" stroke="#6B7278" stroke-width="0.75" stroke-miterlimit="10" cx="50.583" cy="50.117" r="40.046"/>
<circle fill="none" stroke="#6B7278" stroke-width="2" stroke-miterlimit="10" cx="50.583" cy="50.117" r="36.688"/>
<g>
	<path fill="#6B7278" d="M47.583,67.492c0,2.555-2.071,4.625-4.625,4.625l0,0c-2.554,0-4.625-2.07-4.625-4.625v-34.75
		c0-2.554,2.071-4.625,4.625-4.625l0,0c2.554,0,4.625,2.071,4.625,4.625V67.492z"/>
	<path fill="#6B7278" d="M62.833,67.492c0,2.555-2.069,4.625-4.625,4.625l0,0c-2.556,0-4.625-2.07-4.625-4.625v-34.75
		c0-2.554,2.069-4.625,4.625-4.625l0,0c2.556,0,4.625,2.071,4.625,4.625V67.492z"/>
</g>
</svg>
